<svg width="84" height="78" viewBox="0 0 84 78" fill="none" xmlns="http://www.w3.org/2000/svg">
<g clip-path="url(#clip0_574_1441)">
<mask id="mask0_574_1441" style="mask-type:luminance" maskUnits="userSpaceOnUse" x="0" y="0" width="84" height="78">
<path d="M84 0H0V78H84V0Z" fill="white"/>
</mask>
<g mask="url(#mask0_574_1441)">
<path d="M44.7857 0H39.2143C19.2137 0 3 17.4609 3 39C3 60.5391 19.2137 78 39.2143 78H44.7857C64.7863 78 81 60.5391 81 39C81 17.4609 64.7863 0 44.7857 0Z" fill="white"/>
<path d="M41.5 71C59.4493 71 74 56.6731 74 39C74 21.3269 59.4493 7 41.5 7C23.5507 7 9 21.3269 9 39C9 56.6731 23.5507 71 41.5 71Z" fill="#E0E8E2"/>
<path d="M34.6925 50.7508C36.8344 51.9423 39.969 52.9392 41.4056 52.9392C45.8463 52.9392 52.3504 47.1277 52.8467 40.5866C52.8728 40.3921 52.7945 40.1976 52.6377 40.0517C48.6673 35.8693 47.7531 30.5927 47.5703 29.3283C47.6225 29.1338 47.5442 29.0365 47.5442 29.0365C47.4919 28.9879 47.3351 29.1095 47.2828 29.1824C46.7343 29.8633 46.1596 30.3739 45.7156 30.6657C45.5066 30.7873 45.2193 30.7143 45.1409 30.4712C44.5401 28.8663 42.3983 27.7477 41.7191 27.4073C41.5885 27.3344 41.4318 27.3344 41.275 27.383C39.8122 27.8207 31.7669 30.69 30.722 39.1763C30.4869 40.9514 30.5392 42.4833 30.7481 43.7721C31.4273 48.1246 35.1626 48.6596 36.6254 48.7082C36.8344 48.7082 36.9389 48.9514 36.7822 49.0973C32.0853 51.8936 24.5312 46.4225 24.5312 46.4225" fill="#FDF8E5"/>
<path d="M34.6925 50.7508C36.8344 51.9423 39.969 52.9392 41.4056 52.9392C45.8463 52.9392 52.3504 47.1277 52.8467 40.5866C52.8728 40.3921 52.7945 40.1976 52.6377 40.0517C48.6673 35.8693 47.7531 30.5927 47.5703 29.3283C47.6225 29.1338 47.5442 29.0365 47.5442 29.0365C47.4919 28.9879 47.3351 29.1095 47.2828 29.1824C46.7343 29.8633 46.1596 30.3739 45.7156 30.6657C45.5066 30.7873 45.2193 30.7143 45.1409 30.4712C44.5401 28.8663 42.3983 27.7477 41.7191 27.4073C41.5885 27.3344 41.4318 27.3344 41.275 27.383C39.8122 27.8207 31.7669 30.69 30.722 39.1763C30.4869 40.9514 30.5392 42.4833 30.7481 43.7721C31.4273 48.1246 35.1626 48.6596 36.6254 48.7082C36.8344 48.7082 36.9389 48.9514 36.7822 49.0973C32.0853 51.8936 24.5312 46.4225 24.5312 46.4225" stroke="#3A643C" stroke-miterlimit="10" stroke-linecap="round" stroke-linejoin="round"/>
<path d="M48.4854 35.9179C54.0973 35.9179 58.6466 31.683 58.6466 26.4589C58.6466 21.2349 54.0973 17 48.4854 17C42.8735 17 38.3242 21.2349 38.3242 26.4589C38.3242 31.683 42.8735 35.9179 48.4854 35.9179Z" stroke="#3A643C" stroke-miterlimit="10" stroke-linecap="round" stroke-linejoin="round"/>
<path d="M57.757 30.0864L56.4883 32.128L66.731 37.6433L67.9996 35.6017L57.757 30.0864Z" fill="#3A643C"/>
<path d="M28.0943 48.9149C22.7736 54.8724 21.1873 48.9026 21.0044 45.0121C20.8216 41.1215 26.3854 34.7507 27.587 32.3434C28.7886 29.9604 27.0646 24.9513 33.9083 21.7659C39.6289 19.0912 43.2598 21.7902 44.2785 22.7385C44.4352 22.8844 44.6965 22.8844 44.8532 22.7385C47.7788 19.8206 53.4993 23.1276 53.9173 28.8662C54.3614 34.7993 56.5033 36.4285 57.3914 37.62C59.0632 39.8814 63.1904 47.6382 59.246 50.1428C55.2756 52.6716 53.6822 49.5349 53.6822 49.5349C53.6822 49.5349 51.3574 51.9421 48.5624 50.9695C48.1184 50.8236 47.7527 50.5561 47.4653 50.2887" stroke="#3A643C" stroke-miterlimit="10" stroke-linecap="round" stroke-linejoin="round"/>
<path d="M36.3125 51.5532V57" stroke="#3A643C" stroke-miterlimit="10" stroke-linecap="round" stroke-linejoin="round"/>
<path d="M46.2656 51.1636V56.9995" stroke="#3A643C" stroke-miterlimit="10" stroke-linecap="round" stroke-linejoin="round"/>
</g>
</g>
<defs>
<clipPath id="clip0_574_1441">
<rect width="84" height="78" fill="white"/>
</clipPath>
</defs>
</svg>
