<svg width="84" height="78" viewBox="0 0 84 78" fill="none" xmlns="http://www.w3.org/2000/svg">
<path d="M44.7857 0H39.2143C19.2137 0 3 17.4609 3 39C3 60.5391 19.2137 78 39.2143 78H44.7857C64.7863 78 81 60.5391 81 39C81 17.4609 64.7863 0 44.7857 0Z" fill="white"/>
<path d="M42.5 71C60.4493 71 75 56.6731 75 39C75 21.3269 60.4493 7 42.5 7C24.5507 7 10 21.3269 10 39C10 56.6731 24.5507 71 42.5 71Z" fill="#E0E8E2"/>
<path d="M58.8156 30.095C58.8143 29.7247 58.6032 29.3666 58.273 29.1746L50.8719 24.9877C50.5695 24.8166 50.2009 24.8168 49.8914 24.9747C44.9365 27.5012 38.8617 27.5002 33.9077 24.9715C33.6017 24.8153 33.2376 24.8131 32.9367 24.9791L25.5115 29.0745C25.1813 29.2665 24.9702 29.6247 24.9689 29.995C24.9287 41.1033 32.1184 52.5201 41.8924 57.1482C42.2857 57.3659 42.1458 57.3659 42.5391 57.1482C52.4972 51.6304 58.8187 41.1682 58.8156 30.095Z" fill="#FDF8E5" stroke="#3A643C" stroke-miterlimit="10"/>
<path opacity="0.5" d="M39.4098 33.4192C39.2772 33.7276 39.2772 34.1185 39.2772 34.9004V36.4979C39.2772 36.5358 39.2772 36.5548 39.265 36.5666C39.2527 36.5784 39.233 36.5784 39.1936 36.5784H37.5351C36.7234 36.5784 36.3175 36.5784 35.9974 36.7061C35.5705 36.8765 35.2314 37.2031 35.0546 37.6143C34.9219 37.9227 34.9219 38.3136 34.9219 39.0955C34.9219 39.8773 34.9219 40.2683 35.0546 40.5767C35.2314 40.9878 35.5705 41.3145 35.9974 41.4848C36.3175 41.6125 36.7234 41.6125 37.5351 41.6125H39.1936C39.233 41.6125 39.2527 41.6125 39.265 41.6243C39.2772 41.6361 39.2772 41.6551 39.2772 41.6931V43.2906C39.2772 44.0724 39.2772 44.4634 39.4098 44.7718C39.5867 45.1829 39.9258 45.5096 40.3527 45.6799C40.6728 45.8076 41.0787 45.8076 41.8904 45.8076C42.7021 45.8076 43.108 45.8076 43.4281 45.6799C43.855 45.5096 44.1942 45.1829 44.371 44.7718C44.5036 44.4634 44.5036 44.0724 44.5036 43.2906V41.6931C44.5036 41.6551 44.5036 41.6361 44.5158 41.6243C44.5281 41.6125 44.5478 41.6125 44.5872 41.6125H46.2457C47.0574 41.6125 47.4633 41.6125 47.7834 41.4848C48.2103 41.3145 48.5495 40.9878 48.7263 40.5767C48.8589 40.2683 48.8589 39.8773 48.8589 39.0955C48.8589 38.3136 48.8589 37.9227 48.7263 37.6143C48.5495 37.2031 48.2103 36.8765 47.7834 36.7061C47.4633 36.5784 47.0574 36.5784 46.2457 36.5784H44.5872C44.5478 36.5784 44.5281 36.5784 44.5158 36.5666C44.5036 36.5548 44.5036 36.5358 44.5036 36.4979V34.9004C44.5036 34.1185 44.5036 33.7276 44.371 33.4192C44.1942 33.008 43.855 32.6813 43.4281 32.511C43.108 32.3833 42.7021 32.3833 41.8904 32.3833C41.0787 32.3833 40.6728 32.3833 40.3527 32.511C39.9258 32.6813 39.5867 33.008 39.4098 33.4192Z" fill="#E0E8E2" stroke="#3A643C"/>
<path opacity="0.5" d="M34.25 54.7708C35.9759 54.7708 37.375 53.6049 37.375 52.1667C37.375 50.7284 35.9759 49.5625 34.25 49.5625C32.5241 49.5625 31.125 50.7284 31.125 52.1667C31.125 53.6049 32.5241 54.7708 34.25 54.7708Z" stroke="#3A643C"/>
<path d="M34.25 49.25V49.4583" stroke="#3A643C" stroke-linecap="round"/>
<path d="M34.25 54.458V55.2913" stroke="#3A643C" stroke-linecap="round"/>
<path d="M31.6172 50.6112C31.8293 50.788 32.1733 50.788 32.3854 50.6112C32.5975 50.4345 32.5975 50.1478 32.3854 49.971L31.6172 50.6112ZM31.3672 50.4029L31.6172 50.6112L32.3854 49.971L32.1354 49.7627L31.3672 50.4029Z" fill="#3A643C"/>
<path d="M35.7411 50.2835C35.529 50.4603 35.529 50.747 35.7411 50.9237C35.9532 51.1005 36.2972 51.1005 36.5093 50.9237L35.7411 50.2835ZM36.3661 49.7627L35.7411 50.2835L36.5093 50.9237L37.1343 50.4029L36.3661 49.7627Z" fill="#3A643C"/>
<path d="M36.8843 53.7215C36.6722 53.5447 36.3282 53.5447 36.1161 53.7215C35.904 53.8983 35.904 54.1849 36.1161 54.3617L36.8843 53.7215ZM37.1343 53.9298L36.8843 53.7215L36.1161 54.3617L36.3661 54.57L37.1343 53.9298Z" fill="#3A643C"/>
<path d="M30.5 52.1665H31" stroke="#3A643C" stroke-linecap="round"/>
<path d="M37 52.1665H38" stroke="#3A643C" stroke-linecap="round"/>
<path d="M32.7604 54.0492C32.9725 53.8724 32.9725 53.5858 32.7604 53.409C32.5483 53.2322 32.2043 53.2322 31.9922 53.409L32.7604 54.0492ZM32.1354 54.57L32.7604 54.0492L31.9922 53.409L31.3672 53.9298L32.1354 54.57Z" fill="#3A643C"/>
<path d="M34.5 50.9167C34.5 51.1468 34.2761 51.3333 34 51.3333C33.7239 51.3333 33.5 51.1468 33.5 50.9167C33.5 50.6865 33.7239 50.5 34 50.5C34.2761 50.5 34.5 50.6865 34.5 50.9167Z" stroke="#3A643C"/>
<path d="M33.5 52.5832C33.5 52.8133 33.2761 52.9998 33 52.9998C32.7239 52.9998 32.5 52.8133 32.5 52.5832C32.5 52.3531 32.7239 52.1665 33 52.1665C33.2761 52.1665 33.5 52.3531 33.5 52.5832Z" stroke="#3A643C"/>
<path d="M36.25 52.9997C36.25 53.2298 36.0261 53.4163 35.75 53.4163C35.4739 53.4163 35.25 53.2298 35.25 52.9997C35.25 52.7696 35.4739 52.583 35.75 52.583C36.0261 52.583 36.25 52.7696 36.25 52.9997Z" stroke="#3A643C"/>
<path d="M34.25 48.2082C34.5261 48.2082 34.75 48.3947 34.75 48.6248C34.75 48.855 34.5261 49.0415 34.25 49.0415C33.9739 49.0415 33.75 48.855 33.75 48.6248C33.75 48.3947 33.9739 48.2082 34.25 48.2082Z" stroke="#3A643C"/>
<path d="M34.75 55.7081C34.75 55.478 34.5261 55.2915 34.25 55.2915C33.9739 55.2915 33.75 55.478 33.75 55.7081C33.75 55.9383 33.9739 56.1248 34.25 56.1248C34.5261 56.1248 34.75 55.9383 34.75 55.7081Z" stroke="#3A643C"/>
<path d="M31.25 49.2497C31.5261 49.2497 31.75 49.4362 31.75 49.6663C31.75 49.8965 31.5261 50.083 31.25 50.083C30.9739 50.083 30.75 49.8965 30.75 49.6663C30.75 49.4362 30.9739 49.2497 31.25 49.2497Z" stroke="#3A643C"/>
<path d="M37.25 49.2497C37.5261 49.2497 37.75 49.4362 37.75 49.6663C37.75 49.8965 37.5261 50.083 37.25 50.083C36.9739 50.083 36.75 49.8965 36.75 49.6663C36.75 49.4362 36.9739 49.2497 37.25 49.2497Z" stroke="#3A643C"/>
<path d="M37.25 54.2497C37.5261 54.2497 37.75 54.4362 37.75 54.6663C37.75 54.8965 37.5261 55.083 37.25 55.083C36.9739 55.083 36.75 54.8965 36.75 54.6663C36.75 54.4362 36.9739 54.2497 37.25 54.2497Z" stroke="#3A643C"/>
<path d="M30.5 52.1661C30.5 51.936 30.2761 51.7495 30 51.7495C29.7239 51.7495 29.5 51.936 29.5 52.1661C29.5 52.3963 29.7239 52.5828 30 52.5828C30.2761 52.5828 30.5 52.3963 30.5 52.1661Z" stroke="#3A643C"/>
<path d="M39 52.1661C39 51.936 38.7761 51.7495 38.5 51.7495C38.2239 51.7495 38 51.936 38 52.1661C38 52.3963 38.2239 52.5828 38.5 52.5828C38.7761 52.5828 39 52.3963 39 52.1661Z" stroke="#3A643C"/>
<path d="M31.25 54.2497C31.5261 54.2497 31.75 54.4362 31.75 54.6663C31.75 54.8965 31.5261 55.083 31.25 55.083C30.9739 55.083 30.75 54.8965 30.75 54.6663C30.75 54.4362 30.9739 54.2497 31.25 54.2497Z" stroke="#3A643C"/>
</svg>
