<svg width="22" height="18" viewBox="0 0 22 18" fill="none" xmlns="http://www.w3.org/2000/svg">
<path d="M22 2V16C22 16.55 21.8043 17.021 21.413 17.413C21.0217 17.805 20.5507 18.0007 20 18H17C16.7167 18 16.4793 17.904 16.288 17.712C16.0967 17.52 16.0007 17.2827 16 17C16 16.7167 16.096 16.4793 16.288 16.288C16.48 16.0967 16.7173 16.0007 17 16H20V2H11V2.5C11 2.78333 10.904 3.021 10.712 3.213C10.52 3.405 10.2827 3.50067 10 3.5C9.71667 3.5 9.47933 3.404 9.288 3.212C9.09667 3.02 9.00067 2.78267 9 2.5V1.95C9 1.41667 9.19167 0.958333 9.575 0.575C9.95833 0.191667 10.4167 0 10.95 0H20C20.55 0 21.021 0.196 21.413 0.588C21.805 0.98 22.0007 1.45067 22 2ZM0 9.025C0 8.69167 0.075 8.38333 0.225 8.1C0.375 7.81667 0.583333 7.58333 0.85 7.4L5.85 3.825C6.03333 3.69167 6.221 3.59567 6.413 3.537C6.605 3.47833 6.80067 3.44933 7 3.45C7.2 3.45 7.396 3.47933 7.588 3.538C7.78 3.59667 7.96733 3.69233 8.15 3.825L13.15 7.4C13.4167 7.58333 13.625 7.81667 13.775 8.1C13.925 8.38333 14 8.69167 14 9.025V16C14 16.55 13.8043 17.021 13.413 17.413C13.0217 17.805 12.5507 18.0007 12 18H10C9.45 18 8.97933 17.8043 8.588 17.413C8.19667 17.0217 8.00067 16.5507 8 16V13H6V16C6 16.55 5.80433 17.021 5.413 17.413C5.02167 17.805 4.55067 18.0007 4 18H2C1.45 18 0.979333 17.8043 0.588 17.413C0.196667 17.0217 0.000666667 16.5507 0 16V9.025ZM2 9V16H4V13C4 12.45 4.196 11.9793 4.588 11.588C4.98 11.1967 5.45067 11.0007 6 11H8C8.55 11 9.021 11.196 9.413 11.588C9.805 11.98 10.0007 12.4507 10 13V16H12V9L7 5.45L2 9ZM16.5 6H17.5C17.6333 6 17.75 5.95 17.85 5.85C17.95 5.75 18 5.63333 18 5.5V4.5C18 4.36667 17.95 4.25 17.85 4.15C17.75 4.05 17.6333 4 17.5 4H16.5C16.3667 4 16.25 4.05 16.15 4.15C16.05 4.25 16 4.36667 16 4.5V5.5C16 5.63333 16.05 5.75 16.15 5.85C16.25 5.95 16.3667 6 16.5 6ZM16.5 10H17.5C17.6333 10 17.75 9.95 17.85 9.85C17.95 9.75 18 9.63333 18 9.5V8.5C18 8.36667 17.95 8.25 17.85 8.15C17.75 8.05 17.6333 8 17.5 8H16.5C16.3667 8 16.25 8.05 16.15 8.15C16.05 8.25 16 8.36667 16 8.5V9.5C16 9.63333 16.05 9.75 16.15 9.85C16.25 9.95 16.3667 10 16.5 10ZM16.5 14H17.5C17.6333 14 17.75 13.95 17.85 13.85C17.95 13.75 18 13.6333 18 13.5V12.5C18 12.3667 17.95 12.25 17.85 12.15C17.75 12.05 17.6333 12 17.5 12H16.5C16.3667 12 16.25 12.05 16.15 12.15C16.05 12.25 16 12.3667 16 12.5V13.5C16 13.6333 16.05 13.75 16.15 13.85C16.25 13.95 16.3667 14 16.5 14Z" fill="#2E37A4"/>
</svg>
