<svg width="84" height="78" viewBox="0 0 84 78" fill="none" xmlns="http://www.w3.org/2000/svg">
<path d="M44.7857 0H39.2143C19.2137 0 3 17.4609 3 39C3 60.5391 19.2137 78 39.2143 78H44.7857C64.7863 78 81 60.5391 81 39C81 17.4609 64.7863 0 44.7857 0Z" fill="white"/>
<path d="M41.5 71C59.4493 71 74 56.6731 74 39C74 21.3269 59.4493 7 41.5 7C23.5507 7 9 21.3269 9 39C9 56.6731 23.5507 71 41.5 71Z" fill="#E0E8E2"/>
<path d="M54.6419 32.262C54.1108 42.3916 48.1662 30.4546 40.8331 30.4546C38.993 31.1937 28.1241 42.9205 27.3086 32.26C27.3086 25.7823 33.5 20 40.8331 20C48.1662 20 54.6419 25.7843 54.6419 32.262Z" fill="#FDF8E5"/>
<path d="M52.4383 58.3276C50.135 57.8986 48.4608 56.7559 47.4534 54.9366C46.0014 52.3089 46.4413 49.2273 46.6352 48.7777C48.3662 47.6226 49.6526 46.1128 50.608 44.079C52.0126 44.0501 53.4031 43.1055 54.3443 41.542C55.1294 40.2343 55.5456 38.4316 54.699 37.3631C54.5287 37.1445 54.2686 36.9176 53.8808 36.7567C54.9024 35.0654 55.1105 33.6463 55.1105 31.8229C55.1105 25.3051 48.9432 20 41.3665 20C38.2782 20 35.4216 20.8828 33.123 22.3679C33.1136 22.372 33.1041 22.3761 33.0947 22.3803C33.0663 22.3968 33.0426 22.4174 33.019 22.438C29.7367 24.5996 27.6179 28.003 27.6179 31.8229C27.6179 33.8154 27.6652 34.9045 28.682 36.5175C28.2044 36.6783 27.8969 36.9382 27.703 37.1857C26.8565 38.2583 27.2679 40.0569 28.0577 41.3646C29.0131 42.9569 30.4367 43.9058 31.865 43.9058C31.9312 43.9058 31.9927 43.8893 32.0447 43.8645C33.071 46.0179 34.4331 47.6721 36.0979 48.7777C36.2871 49.2232 36.7316 52.3047 35.2797 54.9366C34.2723 56.7559 32.5933 57.8986 30.2948 58.3317C30.0867 58.3688 29.9543 58.5503 29.9968 58.7319C30.0347 58.8886 30.1955 59 30.3752 59C30.4036 59 30.4272 58.9959 30.4556 58.9917C34.6223 58.2121 36.1783 55.4523 36.7506 53.2742C37.1147 51.8963 37.1478 50.3618 37.0107 49.3593C38.3066 50.073 39.82 50.4566 41.3665 50.4566C42.9131 50.4566 44.4313 50.0689 45.7224 49.3593C45.5805 50.3659 45.6184 51.8963 45.9825 53.2742C46.5548 55.4523 48.1108 58.2121 52.2775 58.9917C52.3059 58.9959 52.3342 59 52.3579 59C52.5376 59 52.6984 58.8927 52.7362 58.7319C52.7788 58.5421 52.6464 58.3647 52.4383 58.3276ZM54.3348 31.8188C54.3348 33.8649 54.0132 35.1314 53.1146 36.5628C52.9538 36.5463 52.7835 36.5381 52.5944 36.5422C53.4457 27.3305 46.6683 25.0905 46.5974 25.0699C46.394 25.008 46.1764 25.0988 46.1008 25.2721C46.0298 25.4453 46.1339 25.6392 46.3325 25.7052C46.3893 25.7217 51.0194 27.2604 51.7809 33.2626C49.0898 27.4626 40.8132 27.5121 40.7139 27.5203C40.501 27.5244 40.3308 27.6771 40.3355 27.8627C40.3402 28.0483 40.5105 28.1927 40.7233 28.1927C40.7281 28.1927 40.7281 28.1927 40.7281 28.1927C41.1206 28.1845 49.8181 28.1391 51.5397 34.8797C50.6978 33.9598 49.4682 33.1389 47.827 32.3963C46.8906 31.9714 45.9021 31.6167 44.9468 31.2743C43.9347 30.9113 42.8894 30.5359 41.9152 30.0821C38.2451 28.3577 35.8992 25.5361 33.8325 22.7515C35.956 21.4438 38.5572 20.6724 41.3618 20.6724C48.5175 20.6724 54.3348 25.6722 54.3348 31.8188ZM28.3935 31.8188C28.3935 28.3247 30.2759 25.2019 33.2129 23.1558C35.1709 25.796 37.3938 28.4691 40.7659 30.2677C40.0139 31.1216 36.5708 34.7147 30.9238 36.1874C31.2218 33.5638 33.998 30.9608 34.0264 30.936C34.173 30.7999 34.1635 30.5854 34.0122 30.4575C33.8561 30.3296 33.6102 30.3378 33.4683 30.4699C33.3359 30.5936 30.3043 33.4276 30.134 36.3772C30.1293 36.3772 30.1245 36.3772 30.1198 36.3813C29.8881 36.3607 29.6752 36.3566 29.4813 36.3648C28.4408 34.7972 28.3935 33.8195 28.3935 31.8188ZM36.6276 48.2785C34.8635 47.1193 33.4541 45.3042 32.4467 42.9033L31.794 40.9768C31.7326 40.7994 31.5197 40.6963 31.3116 40.7499C31.1083 40.8036 30.99 40.9892 31.0515 41.1707L31.7136 43.1178C31.7278 43.155 31.7468 43.188 31.7609 43.2251C30.4698 43.1673 29.3631 42.0741 28.7483 41.0511C27.9442 39.7145 27.7787 38.2831 28.3462 37.5694C28.682 37.1445 29.2732 36.9754 30.1056 37.0661C30.1151 37.0661 30.1293 37.0661 30.1387 37.0661C30.1435 37.0661 30.1482 37.0661 30.1529 37.0661C30.1576 37.0661 30.1624 37.0661 30.1671 37.0661C30.1907 37.0661 30.2144 37.062 30.238 37.0579C30.2428 37.0579 30.2428 37.0579 30.2475 37.0579H30.2522C30.257 37.0579 30.2617 37.0579 30.2664 37.0537C30.3563 37.0331 30.4461 37.0125 30.5313 36.9919C30.5833 36.9877 30.6353 36.9754 30.6826 36.9589C37.0532 35.4614 40.747 31.4352 41.4422 30.6184C41.4848 30.639 41.5273 30.6637 41.5699 30.6844C42.5773 31.1546 43.6414 31.5383 44.6677 31.9054C45.6042 32.2437 46.5784 32.5902 47.4865 33.0027C49.8134 34.0506 51.237 35.251 51.8471 36.666C51.8471 36.6701 51.8518 36.6701 51.8518 36.6742C51.8566 36.6825 51.8613 36.6948 51.866 36.7031C51.8708 36.7113 51.8755 36.7196 51.8849 36.7278C51.8897 36.7361 51.8991 36.7443 51.9039 36.7526C51.9039 36.7526 51.9039 36.7567 51.9086 36.7567C51.8755 36.8145 51.8566 36.8846 51.866 36.9547C51.8897 37.1404 52.0836 37.2724 52.2964 37.2476C53.1288 37.161 53.72 37.3301 54.0558 37.7509C54.6233 38.4646 54.4578 39.9001 53.6538 41.2326C53.0815 42.1855 52.0836 43.1921 50.9059 43.3777C51.0147 43.1096 51.1235 42.8332 51.2228 42.5485L51.6768 40.882C51.7241 40.7004 51.5964 40.5189 51.3883 40.4777C51.1802 40.4364 50.9721 40.5478 50.9248 40.7293L50.4755 42.3753C49.5249 45.0649 48.1392 46.9419 46.0913 48.2909C46.0866 48.2909 46.0866 48.295 46.0818 48.295C44.7576 49.2521 43.0833 49.7801 41.3618 49.7801C39.645 49.776 37.966 49.2479 36.6276 48.2785Z" fill="#3A643C"/>
<path d="M38.1402 37.9282C36.2957 39.1658 34.0492 37.9612 33.9499 37.9117C33.7702 37.8127 33.529 37.8581 33.4155 38.0148C33.302 38.1716 33.354 38.382 33.5337 38.481C33.6094 38.5222 34.7918 39.1617 36.239 39.1617C36.9957 39.1617 37.8234 38.9884 38.6037 38.4645C38.774 38.3531 38.8071 38.1386 38.6747 37.9901C38.5517 37.8457 38.3105 37.8168 38.1402 37.9282Z" fill="#3A643C"/>
<path d="M49.1888 38.4809C49.3686 38.3819 49.4206 38.1756 49.3071 38.0148C49.1936 37.858 48.9571 37.8085 48.7727 37.9075C48.6781 37.9611 46.4316 39.1616 44.5823 37.924C44.4121 37.8085 44.1709 37.8374 44.0384 37.9859C43.906 38.1344 43.9391 38.3448 44.1094 38.4603C44.8897 38.9842 45.7174 39.1574 46.4741 39.1574C47.9308 39.1616 49.1179 38.5222 49.1888 38.4809Z" fill="#3A643C"/>
<path d="M25.966 37.3136C24.1877 37.1693 24.0458 34.6034 24.0458 34.5786C24.0363 34.3971 23.8661 34.2568 23.658 34.2568C23.4499 34.2568 23.2796 34.4012 23.2702 34.5786C23.2702 34.6034 23.1283 37.1693 21.35 37.3136C21.1513 37.3301 21 37.4745 21 37.6478C21 37.821 21.1513 37.9654 21.35 37.9819C22.8256 38.1016 23.2371 40.5726 23.2702 41.5131C23.2749 41.6946 23.4499 41.839 23.658 41.839C23.8661 41.839 24.0363 41.6946 24.0458 41.5131C24.0789 40.5726 24.4904 38.1016 25.966 37.9819C26.1646 37.9654 26.316 37.821 26.316 37.6478C26.316 37.4745 26.1646 37.3301 25.966 37.3136ZM23.658 39.4381C23.4262 38.7616 23.0526 38.0809 22.4614 37.6767C23.0526 37.3425 23.4262 36.7939 23.658 36.2493C23.8897 36.7939 24.2634 37.3425 24.8545 37.6767C24.2634 38.0809 23.8897 38.7616 23.658 39.4381Z" fill="#3A643C"/>
<path d="M61.6496 26.7492C59.8713 26.6048 59.7294 24.0389 59.7294 24.0142C59.7199 23.8326 59.5497 23.6924 59.3416 23.6924C59.1335 23.6924 58.9632 23.8368 58.9537 24.0142C58.9537 24.0389 58.8119 26.6048 57.0336 26.7492C56.8349 26.7657 56.6836 26.9101 56.6836 27.0833C56.6836 27.2566 56.8349 27.401 57.0336 27.4175C58.5092 27.5371 58.9206 30.0081 58.9537 30.9487C58.9585 31.1302 59.1335 31.2746 59.3416 31.2746C59.5497 31.2746 59.7199 31.1302 59.7294 30.9487C59.7625 30.0081 60.1739 27.5371 61.6496 27.4175C61.8482 27.401 61.9995 27.2566 61.9995 27.0833C61.9995 26.9101 61.8482 26.7657 61.6496 26.7492ZM59.3463 28.8737C59.1145 28.1971 58.7409 27.5165 58.1497 27.1122C58.7409 26.7781 59.1145 26.2294 59.3463 25.6849C59.578 26.2294 59.9517 26.7781 60.5429 27.1122C59.9469 27.5165 59.578 28.1971 59.3463 28.8737Z" fill="#3A643C"/>
<path d="M28.7485 44.2478C27.9445 44.1818 27.8783 42.9896 27.8783 42.9772C27.8736 42.8576 27.7601 42.7627 27.6229 42.7627C27.4858 42.7627 27.3723 42.8576 27.3675 42.9772C27.3675 42.9896 27.2919 44.1818 26.4973 44.2478C26.3649 44.2602 26.2656 44.355 26.2656 44.4705C26.2656 44.5861 26.3649 44.6851 26.4973 44.6933C27.1594 44.7469 27.3486 45.935 27.3675 46.3475C27.3723 46.4672 27.4858 46.5662 27.6229 46.5662C27.7601 46.5662 27.8783 46.4713 27.8783 46.3475C27.8925 45.935 28.0864 44.7469 28.7485 44.6933C28.881 44.6809 28.9803 44.5861 28.9803 44.4705C28.9803 44.355 28.881 44.2602 28.7485 44.2478ZM27.6229 45.1347C27.5189 44.8872 27.3675 44.6562 27.1594 44.4912C27.3675 44.3509 27.5189 44.157 27.6229 43.9549C27.727 44.157 27.8783 44.3509 28.0864 44.4912C27.8783 44.6562 27.727 44.8872 27.6229 45.1347Z" fill="#3A643C"/>
</svg>
