<svg width="85" height="78" viewBox="0 0 85 78" fill="none" xmlns="http://www.w3.org/2000/svg">
<g clip-path="url(#clip0_574_1382)">
<mask id="mask0_574_1382" style="mask-type:luminance" maskUnits="userSpaceOnUse" x="1" y="1" width="85" height="78">
<path d="M85.5 1H1.5V79H85.5V1Z" fill="white"/>
</mask>
<g mask="url(#mask0_574_1382)">
<path d="M46.2857 1H40.7143C20.7137 1 4.5 18.4609 4.5 40C4.5 61.5391 20.7137 79 40.7143 79H46.2857C66.2863 79 82.5 61.5391 82.5 40C82.5 18.4609 66.2863 1 46.2857 1Z" fill="white"/>
<path d="M43 72C60.9493 72 75.5 57.6731 75.5 40C75.5 22.3269 60.9493 8 43 8C25.0507 8 10.5 22.3269 10.5 40C10.5 57.6731 25.0507 72 43 72Z" fill="#E0E8E2"/>
<path d="M41.5 16H45.5C58.2025 16 68.5 26.9691 68.5 40.5C68.5 54.0309 58.2025 65 45.5 65H41.5C28.7975 65 18.5 54.0309 18.5 40.5C18.5 26.9691 28.7975 16 41.5 16Z" fill="#FDF8E5"/>
<path d="M53.5987 59C60.6408 55.5281 65.5 48.3708 65.5 40.3759C65.5 29.1572 56.0026 20 44.0574 20C43.2105 20 42.3614 20.0651 41.5 20.1442C41.5709 20.3279 41.6405 20.5098 41.7097 20.6902C42.1714 21.8948 42.6066 23.0302 43.1657 24.1725L43.1711 24.1837L43.176 24.1951C43.9132 25.9022 44.8643 27.6166 45.8197 29.1354C46.8867 30.7632 47.9472 32.2791 49.2166 33.7922L49.2216 33.7981L49.2264 33.8042C50.5369 35.4704 51.6263 37.2375 52.6033 39.1007L52.6102 39.1138L52.6163 39.1274C54.3556 42.9626 55.4562 47.1365 55.3476 51.3331C55.3463 53.9123 54.7195 56.6322 53.5987 59Z" fill="#E0E8E2" stroke="#3A643C"/>
<path d="M53.0518 51.4863L53.0505 51.4748C52.7016 47.8794 51.42 44.3645 49.6511 40.9216L49.645 40.9093C48.8348 39.2198 47.7891 37.72 46.4912 36.099C45.1667 34.4447 43.9562 32.6792 42.9851 30.803C42.0229 28.9441 41.1708 26.9629 40.6816 24.9678L40.6794 24.9586L40.6775 24.9494C40.3543 23.3769 40.1273 21.8039 39.9966 20.3037C37.9079 20.6112 35.98 21.2037 34.1289 21.893C35.1863 26.623 36.8528 30.4584 41.4172 35.6534C43.054 37.3729 46.0988 41.1541 47.928 45.8661C49.6708 50.3557 50.3267 55.7423 47.5406 60.979C49.1261 60.7736 50.7067 60.431 52.2106 60.0113C53.1796 57.2044 53.3911 54.3031 53.0518 51.4863Z" fill="#E0E8E2" stroke="#3A643C"/>
<path d="M32.4272 34.0933C32.1891 35.1155 32.1891 35.2177 31.5938 35.4222C32.9032 35.5244 35.8794 35.5244 37.07 34.0933C35.9985 34.2977 33.6176 34.7066 32.4272 34.0933Z" fill="white"/>
<path d="M31.2398 31.64C31.716 31.1289 34.5731 31.1289 36.0017 31.2311C34.9303 30.72 32.4303 30.9245 31.2398 31.0267C31.0017 31.4356 30.6446 32.1511 31.2398 31.64Z" fill="white"/>
<path d="M29.2279 47.5913L29.2369 47.5859L29.246 47.5808C29.2834 47.5603 29.286 47.5469 29.288 47.541C29.2946 47.5223 29.3032 47.4755 29.2904 47.3899C29.2705 47.2563 29.2109 47.1106 29.1518 47.0032C28.5286 46.7073 28.1713 46.2649 28.0859 45.7375C28.0377 45.4407 28.0837 45.1606 28.1743 44.9223C28.0992 44.8339 28.0386 44.7335 27.9933 44.6232C27.8834 44.3555 27.8821 44.0736 27.9191 43.837C27.9565 43.5975 28.0383 43.3692 28.1339 43.1785C28.2195 43.0079 28.33 42.8399 28.4565 42.714C28.4965 42.6566 28.5167 42.5769 28.4709 42.4513C28.4125 42.2912 28.2328 42.0368 27.7869 41.765L27.7807 41.7613L27.7747 41.7574C27.3188 41.4598 27.0415 41.085 27.0133 40.647C26.9866 40.2341 27.1928 39.9207 27.3727 39.7522C28.4412 38.6777 29.0944 37.983 31.2934 35.4022C31.0551 33.5997 31.2585 31.5554 31.608 29.725C31.9604 27.8795 32.469 26.2116 32.862 25.1612C32.8072 24.7363 32.7113 24.322 32.5992 23.8895C32.5656 23.7597 32.53 23.6266 32.4937 23.4907C32.4509 23.3305 32.407 23.1666 32.3642 23C25.8982 26.4528 21.5 32.9406 21.5 40.3218C21.5 51.4408 31.4348 61 43.6485 61H44.1814C44.2197 60.9352 44.2575 60.8664 44.2991 60.7903L44.304 60.7815C44.3598 60.6795 44.4232 60.5636 44.5 60.4429C44.3384 58.8122 43.313 56.4701 41.9311 54.4975C41.2215 53.4845 40.4373 52.5977 39.663 51.9753C38.8801 51.3461 38.1623 51.0307 37.5704 51.0493C33.8013 51.2518 32.5514 51.2537 30.7398 51.0468C29.6772 50.9254 29.0286 50.2694 28.7732 49.5359C28.649 49.1792 28.6171 48.8012 28.6804 48.4628C28.7427 48.1299 28.9099 47.7851 29.2279 47.5913Z" fill="#E0E8E2" stroke="#147A36"/>
<path d="M31.5938 37.4222C32.9032 37.5244 35.8794 37.5244 37.07 36.0933C35.9985 36.2977 33.6176 36.7066 32.4272 36.0933C32.1891 37.1155 32.1891 37.2177 31.5938 37.4222Z" fill="#6B8E70"/>
<path d="M31.2398 33.64C31.716 33.1289 34.5731 33.1289 36.0017 33.2311C34.9303 32.72 32.4303 32.9245 31.2398 33.0267C31.0017 33.4356 30.6446 34.1511 31.2398 33.64Z" fill="#3A643C"/>
</g>
</g>
<defs>
<clipPath id="clip0_574_1382">
<rect width="84" height="78" fill="white" transform="translate(0.5)"/>
</clipPath>
</defs>
</svg>
